<svg width="1254" height="494" viewBox="0 0 1254 494" fill="none" xmlns="http://www.w3.org/2000/svg">
<path d="M18.04 347.557C19.1445 339.58 21.4762 328.596 25.0352 314.606C28.7168 300.493 33.3802 285.46 39.0254 269.506C51.9111 232.935 67.1899 200.352 84.8618 171.758C87.3162 167.831 90.4456 165.561 94.25 164.947C99.6497 164.211 104.375 163.843 108.424 163.843C112.597 163.843 116.278 164.334 119.469 165.315C122.783 166.174 125.36 167.34 127.201 168.813C130.882 171.881 131.496 175.133 129.042 178.569C106.829 212.072 87.439 252.938 70.8716 301.168C64.6128 319.576 60.8698 332.401 59.6426 339.641C58.4154 346.759 57.495 351.668 56.8813 354.368C56.3905 356.945 56.145 359.215 56.145 361.179C56.145 365.229 58.7222 367.253 63.8765 367.253C69.0308 367.253 74.7987 366.088 81.1802 363.756C87.5617 361.301 94.4341 357.927 101.797 353.631C109.161 349.213 116.769 343.875 124.624 337.616C132.6 331.357 140.393 324.362 148.002 316.631C155.611 308.777 162.79 300.309 169.54 291.228C176.289 282.146 182.18 272.574 187.211 262.511C198.379 240.421 203.963 218.638 203.963 197.162C203.963 167.708 191.998 148.134 168.067 138.439C159.722 135.126 151.009 133.469 141.927 133.469C132.969 133.469 125.36 134.083 119.101 135.31C112.842 136.415 106.829 138.01 101.061 140.096C89.4025 144.269 79.5848 149.853 71.6079 156.848C69.5216 158.075 67.0059 158.688 64.0605 158.688C61.1152 158.688 57.9245 157.829 54.4883 156.111C51.1748 154.393 48.1681 152.246 45.4683 149.668C39.3322 143.655 36.8778 137.887 38.105 132.365C39.4549 124.511 51.2362 117.7 73.4487 111.932C92.1024 107.146 110.879 104.752 129.778 104.752C148.677 104.752 165.674 107.33 180.769 112.484C195.986 117.638 208.319 124.572 217.769 133.285C235.441 149.73 244.277 171.758 244.277 199.371C244.277 235.942 231.637 271.224 206.356 305.218C183.162 336.757 155.549 360.688 123.519 377.01C102.779 387.564 83.696 392.841 66.2695 392.841C52.6475 392.841 40.9276 388.852 31.1099 380.875C20.5558 372.408 16.1992 361.301 18.04 347.557ZM350.492 157.4C347.792 160.222 344.724 162.554 341.288 164.395C337.852 166.113 334.232 167.218 330.427 167.708C326.623 168.077 323.003 167.463 319.566 165.868C316.253 164.272 313.369 162.002 310.915 159.057C305.638 152.921 302.999 146.723 302.999 140.464C302.999 134.206 303.981 129.542 305.944 126.474C308.031 123.283 310.608 120.706 313.676 118.743C319.566 114.938 325.089 113.036 330.243 113.036C335.52 113.036 339.57 113.404 342.393 114.141C345.338 114.877 348.038 116.104 350.492 117.822C356.506 121.872 359.512 126.842 359.512 132.733C359.512 138.501 358.653 143.348 356.935 147.275C355.34 151.08 353.192 154.455 350.492 157.4ZM312.755 356.577C315.946 356.577 317.542 358.663 317.542 362.835C317.542 368.358 315.026 374.064 309.994 379.955C302.631 388.546 292.752 392.841 280.357 392.841C266.121 392.841 256.365 387.073 251.088 375.537C249.124 371.487 248.143 366.578 248.143 360.811C248.143 355.043 249.124 348.661 251.088 341.666C253.174 334.548 255.69 327.124 258.635 319.392C261.703 311.538 265.017 303.622 268.576 295.646L278.332 272.451C285.45 255.147 289.009 243.734 289.009 238.212C289.009 232.689 288.395 229.069 287.168 227.351C286.063 225.51 284.836 224.099 283.486 223.117L279.805 220.54C278.577 219.681 277.964 218.208 277.964 216.122C277.964 213.913 278.762 211.827 280.357 209.863C282.075 207.9 284.284 206.182 286.984 204.709C292.506 201.886 298.949 200.475 306.312 200.475C324.353 200.475 333.373 205.2 333.373 214.649C333.373 225.694 330.489 238.335 324.721 252.57C318.953 266.683 314.044 278.096 309.994 286.81L298.949 312.213C290.85 330.867 286.8 344.305 286.8 352.527C286.8 357.927 289.5 360.626 294.899 360.626C300.176 360.626 304.165 359.951 306.865 358.602C309.565 357.252 311.528 356.577 312.755 356.577ZM359.696 373.144C357.855 369.094 356.935 364.308 356.935 358.786C356.935 353.263 357.794 347.188 359.512 340.562C361.23 333.812 363.439 326.939 366.139 319.944C368.839 312.949 371.846 305.831 375.159 298.591L384.547 277.237C396.697 249.134 401.176 232.567 397.985 227.535C396.513 225.203 393.69 222.872 389.518 220.54C388.168 219.681 387.493 218.208 387.493 216.122C387.493 213.913 388.352 211.827 390.07 209.863C391.911 207.9 394.304 206.182 397.249 204.709C403.14 201.886 409.092 200.475 415.105 200.475C421.118 200.475 425.659 201.15 428.727 202.5C431.918 203.727 434.556 205.323 436.643 207.286C440.57 211.336 442.533 216.245 442.533 222.013C442.533 227.781 441.429 234.285 439.22 241.525C437.011 248.766 434.25 256.375 430.936 264.352C427.623 272.328 424.002 280.489 420.075 288.834L409.214 312.949C401.483 330.744 397.617 342.525 397.617 348.293C397.617 359.583 401.606 365.229 409.583 365.229C430.077 365.229 449.283 353.079 467.2 328.78C477.632 314.667 485.118 299.327 489.658 282.76C491.744 274.906 492.788 267.788 492.788 261.406C492.788 254.902 492.542 249.502 492.051 245.207C491.683 240.912 491.008 237.107 490.026 233.794C488.431 227.903 485.731 222.81 481.927 218.515C479.35 215.324 480.515 211.581 485.424 207.286C490.824 202.745 498.494 200.475 508.435 200.475C514.571 200.475 519.97 203.359 524.634 209.127C530.524 215.999 533.47 225.878 533.47 238.764C533.47 251.527 531.568 264.106 527.763 276.501C523.959 288.773 518.743 300.616 512.116 312.029C505.489 323.319 497.635 333.873 488.554 343.691C479.595 353.509 469.9 362.038 459.469 369.278C437.133 384.987 414.798 392.841 392.463 392.841C376.386 392.841 365.464 386.275 359.696 373.144ZM650.914 157.4C648.214 160.222 645.146 162.554 641.71 164.395C638.274 166.113 634.653 167.218 630.849 167.708C627.045 168.077 623.424 167.463 619.988 165.868C616.675 164.272 613.791 162.002 611.336 159.057C606.059 152.921 603.421 146.723 603.421 140.464C603.421 134.206 604.403 129.542 606.366 126.474C608.452 123.283 611.03 120.706 614.098 118.743C619.988 114.938 625.511 113.036 630.665 113.036C635.942 113.036 639.992 113.404 642.814 114.141C645.76 114.877 648.46 116.104 650.914 117.822C656.927 121.872 659.934 126.842 659.934 132.733C659.934 138.501 659.075 143.348 657.357 147.275C655.762 151.08 653.614 154.455 650.914 157.4ZM613.177 356.577C616.368 356.577 617.963 358.663 617.963 362.835C617.963 368.358 615.448 374.064 610.416 379.955C603.053 388.546 593.174 392.841 580.779 392.841C566.543 392.841 556.787 387.073 551.51 375.537C549.546 371.487 548.564 366.578 548.564 360.811C548.564 355.043 549.546 348.661 551.51 341.666C553.596 334.548 556.112 327.124 559.057 319.392C562.125 311.538 565.439 303.622 568.998 295.646L578.754 272.451C585.872 255.147 589.431 243.734 589.431 238.212C589.431 232.689 588.817 229.069 587.59 227.351C586.485 225.51 585.258 224.099 583.908 223.117L580.227 220.54C578.999 219.681 578.386 218.208 578.386 216.122C578.386 213.913 579.183 211.827 580.779 209.863C582.497 207.9 584.706 206.182 587.406 204.709C592.928 201.886 599.371 200.475 606.734 200.475C624.774 200.475 633.794 205.2 633.794 214.649C633.794 225.694 630.91 238.335 625.143 252.57C619.375 266.683 614.466 278.096 610.416 286.81L599.371 312.213C591.271 330.867 587.222 344.305 587.222 352.527C587.222 357.927 589.922 360.626 595.321 360.626C600.598 360.626 604.587 359.951 607.287 358.602C609.986 357.252 611.95 356.577 613.177 356.577ZM792.105 235.267C788.301 235.267 782.901 238.948 775.906 246.312C768.911 253.552 762.836 260.179 757.682 266.192L742.035 284.969L711.845 323.442C704.727 336.941 699.144 348.17 695.094 357.129L685.153 378.482C682.576 383.759 680.306 387.502 678.342 389.711C676.501 391.798 673.924 392.841 670.611 392.841C667.42 392.841 664.291 392.227 661.223 391C658.277 389.896 655.7 388.423 653.491 386.582C648.828 382.655 646.496 378.36 646.496 373.696C646.496 371.855 647.846 368.235 650.546 362.835L657.541 347.925C659.75 343.507 662.327 337.862 665.272 330.989L675.581 305.77C690.062 269.567 697.303 246.189 697.303 235.635C697.303 229.99 695.462 225.817 691.78 223.117L688.099 220.54C686.871 219.681 686.258 218.208 686.258 216.122C686.258 213.913 687.056 211.827 688.651 209.863C690.369 207.9 692.578 206.182 695.278 204.709C700.8 201.886 706.323 200.475 711.845 200.475C717.49 200.475 721.847 201.089 724.915 202.316C727.983 203.543 730.56 205.2 732.646 207.286C737.187 211.581 739.458 216.061 739.458 220.724C739.458 225.388 738.844 230.112 737.617 234.898C736.512 239.562 735.04 244.348 733.199 249.257C731.481 254.043 729.64 258.768 727.676 263.431C725.713 268.095 723.933 272.144 722.338 275.581L718.656 283.496C717.674 285.46 717.429 286.073 717.92 285.337C731.542 266.438 740.501 254.288 744.796 248.889L757.682 233.426C767.131 222.381 774.556 215.079 779.956 211.52C790.878 204.157 799.468 200.475 805.727 200.475C811.986 200.475 817.263 201.273 821.558 202.868C825.853 204.464 829.596 206.734 832.787 209.679C839.537 215.938 842.912 223.915 842.912 233.61C842.912 243.305 840.703 253.429 836.285 263.983C831.867 274.537 828.001 283.128 824.688 289.755C821.497 296.259 818.429 302.886 815.483 309.636C806.279 330.13 801.677 345.041 801.677 354.368C801.677 358.54 804.991 360.626 811.618 360.626C816.772 360.626 821.435 359.522 825.608 357.313C829.903 355.104 832.664 354 833.892 354C836.469 354 837.757 355.288 837.757 357.865C837.757 368.787 832.174 377.93 821.006 385.293C813.52 390.325 806.647 392.841 800.389 392.841C794.13 392.841 788.914 392.166 784.742 390.816C780.692 389.466 777.072 387.318 773.881 384.373C766.64 377.869 763.02 368.787 763.02 357.129C763.02 342.893 767.499 325.099 776.458 303.745C782.962 289.141 787.564 279.139 790.264 273.74L796.523 260.67C800.327 252.816 802.229 246.618 802.229 242.078C802.229 237.537 798.855 235.267 792.105 235.267ZM872.917 326.571C873.408 315.895 875.187 305.709 878.255 296.014C881.323 286.196 885.435 276.746 890.589 267.665C895.743 258.461 901.757 249.809 908.629 241.709C915.624 233.487 923.171 226.308 931.271 220.172C948.82 207.041 966.553 200.475 984.471 200.475C1005.46 200.475 1019.45 209.127 1026.44 226.431C1028.9 232.321 1030.06 239.316 1029.94 247.416C1029.82 255.393 1028.28 262.818 1025.34 269.69C1022.39 276.44 1018.28 282.637 1013 288.282C1007.85 293.805 1001.65 298.775 994.411 303.193C987.293 307.611 979.5 311.354 971.033 314.422C953.606 320.558 934.953 323.749 915.072 323.994C914.581 325.712 914.274 328.289 914.151 331.726C914.029 335.162 914.397 339.028 915.256 343.323C916.115 347.495 917.588 351.238 919.674 354.552C924.092 361.915 930.473 365.597 938.818 365.597C953.054 365.597 966.922 361.424 980.421 353.079C985.207 350.257 989.073 347.373 992.018 344.427C995.086 341.359 997.725 339.825 999.934 339.825C1002.14 339.825 1004.04 341.175 1005.64 343.875C1007.36 346.452 1008.22 349.397 1008.22 352.711C1008.22 359.215 1006.38 364.86 1002.69 369.646C987.232 385.109 964.222 392.841 933.664 392.841C915.624 392.841 901.143 387.441 890.221 376.642C877.949 364.369 872.181 347.679 872.917 326.571ZM980.421 224.958C967.535 224.958 955.14 233.794 943.236 251.466C933.173 266.683 925.074 284.723 918.938 305.586C939.432 303.5 957.227 295.4 972.321 281.287C986.189 268.033 993.123 255.332 993.123 243.182C993.123 231.033 988.889 224.958 980.421 224.958Z" fill="white"/>
<path d="M957.891 111.469L957.961 109.43C958.477 95.4141 962.016 82.1719 968.578 69.7031C974.625 58.3125 982.242 49.1016 991.43 42.0703C1000.52 35.1328 1009.38 31.6641 1018.01 31.6641C1024.57 31.6641 1029.75 33.9375 1033.55 38.4844C1036.78 42.4219 1038.4 47.25 1038.4 52.9688C1038.4 59.8125 1035.89 66.5625 1030.88 73.2188C1027.97 77.0625 1024.88 79.8281 1021.59 81.5156C1020.05 82.3594 1018.59 82.7812 1017.23 82.7812C1015.92 82.7812 1014.7 82.5 1013.58 81.9375C1012.45 81.375 1011.47 80.6719 1010.62 79.8281C1008.89 78 1008.02 76.3594 1008.02 74.9062C1008.02 73.4531 1008.4 72.4453 1009.15 71.8828C1016.84 66.3516 1022.06 60.6562 1024.83 54.7969C1025.91 52.5469 1026.45 50.3438 1026.45 48.1875C1026.45 43.6406 1024.29 41.3672 1019.98 41.3672C1013.23 41.3672 1006.27 45.0469 999.094 52.4062C992.391 59.2031 986.766 67.7344 982.219 78C977.484 88.5469 974.977 98.2266 974.695 107.039L974.625 109.711C974.625 120.258 976.852 127.172 981.305 130.453C982.898 131.625 984.797 132.211 987 132.211C989.25 132.211 991.359 131.93 993.328 131.367C995.297 130.805 997.266 130.031 999.234 129.047C1002.42 127.406 1006.5 124.57 1011.47 120.539C1012.97 119.367 1014.21 119.531 1015.2 121.031C1016.04 122.25 1016.46 123.656 1016.46 125.25C1016.46 127.922 1016.09 129.75 1015.34 130.734C1014.63 131.672 1013.39 132.797 1011.61 134.109C1009.88 135.422 1007.74 136.641 1005.21 137.766C999.305 140.391 993.516 141.703 987.844 141.703C982.172 141.703 977.602 141.023 974.133 139.664C970.664 138.258 967.734 136.266 965.344 133.688C960.375 128.25 957.891 120.844 957.891 111.469ZM1103.23 55.9219C1103.23 46.5937 1097.06 41.9297 1084.73 41.9297C1077 41.9297 1069.17 44.2734 1061.25 48.9609C1058.95 50.3203 1057.15 51.5859 1055.84 52.7578C1054.57 53.8828 1053.35 54.4453 1052.18 54.4453C1051.01 54.4453 1049.88 54.1641 1048.8 53.6016C1047.73 52.9922 1046.77 52.2422 1045.92 51.3516C1042.83 47.9297 1043.16 44.625 1046.91 41.4375C1052.53 36.6094 1061.86 33.4922 1074.89 32.0859C1077.52 31.8047 1080.84 31.6641 1084.88 31.6641C1088.91 31.6641 1093.15 32.3906 1097.6 33.8438C1102.1 35.2969 1105.88 37.2656 1108.92 39.75C1115.02 44.7656 1118.06 51.1641 1118.06 58.9453C1118.06 68.1797 1113.84 76.5938 1105.41 84.1875C1098.09 90.8438 1089.45 95.6016 1079.46 98.4609C1082.18 100.711 1084.73 103.945 1087.12 108.164L1092.75 118.219C1097.67 127.359 1102.08 132.328 1105.97 133.125C1107.33 133.359 1108.73 133.312 1110.19 132.984C1111.64 132.656 1112.58 132.516 1113 132.562C1113.47 132.562 1113.77 132.938 1113.91 133.688C1114.1 134.438 1113.91 135.375 1113.35 136.5C1112.79 137.625 1111.88 138.68 1110.61 139.664C1107.66 142.008 1104.42 143.039 1100.91 142.758C1097.39 142.523 1094.53 141.82 1092.33 140.648C1090.17 139.43 1088.23 137.906 1086.49 136.078C1084.8 134.25 1083.28 132.211 1081.92 129.961C1080.61 127.711 1079.39 125.414 1078.27 123.07L1075.1 116.18C1074.12 113.93 1073.2 112.008 1072.36 110.414C1071.52 108.773 1070.79 107.297 1070.18 105.984C1069.57 104.625 1068.89 103.406 1068.14 102.328C1066.55 99.8906 1064.51 98.3438 1062.02 97.6875C1052.18 123 1042.17 137.438 1032 141C1031.16 141.328 1030.29 141.492 1029.4 141.492C1028.55 141.492 1027.78 141.328 1027.08 141C1026.38 140.719 1025.79 140.344 1025.32 139.875C1024.34 138.984 1023.84 138 1023.84 136.922C1023.84 135.844 1024.2 135.047 1024.9 134.531C1031.93 129.422 1039.73 114.516 1048.31 89.8125L1052.53 77.9297C1057.36 64.2422 1061.44 55.8047 1064.77 52.6172C1065.94 51.7266 1067.16 51.2812 1068.42 51.2812C1069.69 51.2812 1070.79 51.4922 1071.73 51.9141C1072.66 52.2891 1073.48 52.7812 1074.19 53.3906C1075.78 54.7969 1076.58 56.2266 1076.58 57.6797C1076.58 59.1328 1076.25 60.4453 1075.59 61.6172C1074.98 62.7422 1074.28 64.3359 1073.48 66.3984C1071.19 72.3984 1069.41 77.2031 1068.14 80.8125L1064.55 90.9375C1074.54 89.625 1083.38 85.7109 1091.06 79.1953C1099.17 72.3516 1103.23 64.5938 1103.23 55.9219ZM1244.06 126.797C1245.23 126.797 1245.82 127.641 1245.82 129.328C1245.82 130.969 1245.52 132.328 1244.91 133.406C1244.3 134.484 1243.59 135.469 1242.8 136.359C1242 137.25 1240.99 138.094 1239.77 138.891C1236.91 140.766 1233.89 141.703 1230.7 141.703C1227.56 141.703 1225.05 141.328 1223.18 140.578C1221.35 139.781 1219.76 138.609 1218.4 137.062C1215.49 133.828 1214.04 129.352 1214.04 123.633C1214.04 117.539 1215.21 110.109 1217.55 101.344C1219.9 92.5312 1222.15 85.0078 1224.3 78.7734C1226.51 72.4922 1228.76 66.5156 1231.05 60.8438L1237.38 44.7422C1230.45 50.9766 1221.66 64.0781 1211.02 84.0469L1194 116.25C1184.91 133.219 1178.41 141.703 1174.52 141.703C1170.73 141.703 1168.12 140.062 1166.72 136.781C1165.45 133.641 1164.82 128.32 1164.82 120.82C1164.82 113.273 1165.41 106.055 1166.58 99.1641C1167.8 92.2266 1169.32 85.4531 1171.15 78.8438C1174.34 67.1719 1178.46 55.5937 1183.52 44.1094C1178.6 46.875 1173.14 53.0391 1167.14 62.6016C1162.55 70.2422 1159.31 75.8203 1157.44 79.3359L1139.3 112.734C1131.75 126.469 1125.68 134.953 1121.09 138.188C1117.76 140.531 1114.17 141.703 1110.33 141.703C1107.05 141.703 1104.68 140.672 1103.23 138.609C1102.66 137.766 1102.38 136.992 1102.38 136.289C1102.38 135.586 1102.59 135.164 1103.02 135.023C1105.92 134.227 1107.98 133.406 1109.2 132.562C1110.38 131.672 1111.55 130.781 1112.72 129.891C1113.89 128.953 1115.6 127.008 1117.85 124.055C1120.1 121.055 1122.54 117.469 1125.16 113.297C1127.79 109.078 1130.53 104.367 1133.39 99.1641L1142.32 82.7109C1150.57 66.7734 1159.2 54 1168.2 44.3906C1171.38 40.9687 1174.52 38.3203 1177.62 36.4453C1180.71 34.2422 1184.3 32.7656 1188.38 32.0156C1189.5 31.7813 1190.53 31.6641 1191.47 31.6641C1192.45 31.6641 1193.53 31.8047 1194.7 32.0859C1195.92 32.3672 1196.98 32.8125 1197.87 33.4219C1199.93 34.8281 1200.54 36.7031 1199.7 39.0469C1199.32 40.4531 1198.59 42.5625 1197.52 45.375L1193.72 55.4297C1184.86 79.8984 1180.01 102.164 1179.16 122.227C1181.65 117.961 1184.16 113.297 1186.69 108.234L1194.63 92.5547L1203 76.5938C1215.89 52.6875 1227.87 39 1238.93 35.5312C1241.23 34.7812 1243.15 34.4062 1244.7 34.4062C1246.24 34.4062 1247.46 34.6172 1248.35 35.0391C1249.24 35.4141 1250.04 35.9062 1250.74 36.5156C1252.38 38.0156 1252.95 39.5625 1252.43 41.1562C1251.91 42.7031 1251.23 44.6953 1250.39 47.1328L1240.2 76.875L1236.54 88.5469C1232.51 102.047 1230.12 112.406 1229.37 119.625C1229.09 122.672 1229.41 125.062 1230.35 126.797C1231.34 128.484 1232.67 129.328 1234.36 129.328C1236.05 129.328 1237.36 129.211 1238.3 128.977C1239.28 128.695 1240.12 128.391 1240.83 128.062L1242.66 127.219C1243.17 126.938 1243.64 126.797 1244.06 126.797Z" fill="white"/>
</svg>
