<svg width="1167" height="538" viewBox="0 0 1167 538" fill="none" xmlns="http://www.w3.org/2000/svg">
<path d="M419.963 352.191C420.695 346.902 422.242 339.618 424.602 330.341C427.043 320.982 430.135 311.013 433.879 300.434C442.424 276.182 452.556 254.576 464.274 235.614C465.902 233.01 467.977 231.505 470.5 231.098C474.081 230.609 477.214 230.365 479.899 230.365C482.666 230.365 485.108 230.691 487.224 231.342C489.421 231.911 491.13 232.685 492.351 233.661C494.792 235.696 495.199 237.852 493.571 240.131C478.841 262.348 465.983 289.447 454.997 321.43C450.847 333.637 448.365 342.141 447.551 346.942C446.737 351.662 446.127 354.918 445.72 356.708C445.394 358.417 445.231 359.923 445.231 361.225C445.231 363.91 446.94 365.253 450.358 365.253C453.776 365.253 457.601 364.48 461.833 362.934C466.065 361.306 470.622 359.068 475.505 356.22C480.388 353.29 485.433 349.75 490.642 345.6C495.931 341.449 501.099 336.811 506.145 331.684C511.19 326.475 515.951 320.86 520.427 314.838C524.903 308.816 528.809 302.468 532.146 295.795C539.551 281.146 543.254 266.701 543.254 252.46C543.254 232.929 535.319 219.949 519.45 213.52C513.916 211.322 508.138 210.224 502.116 210.224C496.175 210.224 491.13 210.631 486.979 211.444C482.829 212.177 478.841 213.235 475.017 214.618C467.285 217.385 460.775 221.088 455.485 225.727C454.102 226.54 452.434 226.947 450.48 226.947C448.527 226.947 446.411 226.378 444.133 225.238C441.936 224.099 439.942 222.675 438.151 220.966C434.082 216.978 432.455 213.153 433.269 209.491C434.164 204.283 441.976 199.766 456.706 195.941C469.076 192.768 481.527 191.181 494.06 191.181C506.592 191.181 517.863 192.89 527.873 196.308C537.964 199.726 546.143 204.324 552.409 210.102C564.128 221.007 569.987 235.614 569.987 253.925C569.987 278.176 561.605 301.573 544.841 324.115C529.46 345.03 511.149 360.899 489.909 371.723C476.156 378.721 463.501 382.221 451.945 382.221C442.912 382.221 435.14 379.576 428.63 374.286C421.631 368.671 418.742 361.306 419.963 352.191ZM640.422 226.093C638.632 227.965 636.597 229.511 634.318 230.731C632.04 231.871 629.639 232.603 627.116 232.929C624.593 233.173 622.193 232.766 619.914 231.708C617.717 230.65 615.804 229.145 614.177 227.191C610.677 223.122 608.928 219.013 608.928 214.862C608.928 210.712 609.579 207.619 610.881 205.585C612.264 203.469 613.973 201.76 616.008 200.458C619.914 197.935 623.576 196.674 626.994 196.674C630.493 196.674 633.179 196.918 635.051 197.406C637.004 197.895 638.794 198.708 640.422 199.848C644.41 202.533 646.403 205.829 646.403 209.735C646.403 213.56 645.834 216.775 644.694 219.379C643.636 221.902 642.212 224.14 640.422 226.093ZM615.397 358.173C617.513 358.173 618.571 359.556 618.571 362.323C618.571 365.985 616.903 369.77 613.566 373.676C608.684 379.372 602.132 382.221 593.913 382.221C584.473 382.221 578.003 378.396 574.504 370.746C573.202 368.061 572.551 364.805 572.551 360.98C572.551 357.156 573.202 352.924 574.504 348.285C575.887 343.565 577.556 338.642 579.509 333.515C581.543 328.306 583.741 323.057 586.101 317.768L592.57 302.387C597.29 290.912 599.65 283.344 599.65 279.682C599.65 276.02 599.243 273.619 598.43 272.479C597.697 271.259 596.883 270.323 595.988 269.672L593.547 267.963C592.733 267.393 592.326 266.417 592.326 265.033C592.326 263.568 592.855 262.185 593.913 260.883C595.052 259.581 596.517 258.441 598.308 257.465C601.97 255.593 606.242 254.657 611.125 254.657C623.088 254.657 629.069 257.79 629.069 264.057C629.069 271.381 627.157 279.763 623.332 289.203C619.507 298.562 616.252 306.13 613.566 311.908L606.242 328.754C600.871 341.124 598.186 350.035 598.186 355.487C598.186 359.068 599.976 360.858 603.557 360.858C607.056 360.858 609.701 360.411 611.491 359.516C613.282 358.62 614.584 358.173 615.397 358.173ZM646.525 369.159C645.305 366.474 644.694 363.3 644.694 359.638C644.694 355.976 645.264 351.947 646.403 347.553C647.543 343.077 649.007 338.52 650.798 333.881C652.588 329.242 654.582 324.522 656.779 319.721L663.005 305.561C671.062 286.924 674.032 275.938 671.916 272.602C670.939 271.055 669.068 269.509 666.301 267.963C665.406 267.393 664.958 266.417 664.958 265.033C664.958 263.568 665.528 262.185 666.667 260.883C667.888 259.581 669.475 258.441 671.428 257.465C675.334 255.593 679.281 254.657 683.269 254.657C687.256 254.657 690.267 255.105 692.302 256C694.418 256.814 696.167 257.872 697.551 259.174C700.155 261.859 701.457 265.115 701.457 268.939C701.457 272.764 700.725 277.077 699.26 281.879C697.795 286.68 695.964 291.726 693.767 297.016C691.569 302.305 689.169 307.717 686.564 313.251L679.362 329.242C674.235 341.042 671.672 348.855 671.672 352.68C671.672 360.167 674.317 363.91 679.606 363.91C693.197 363.91 705.933 355.854 717.814 339.74C724.732 330.382 729.696 320.209 732.707 309.223C734.09 304.014 734.782 299.294 734.782 295.062C734.782 290.749 734.619 287.169 734.294 284.32C734.05 281.472 733.602 278.949 732.951 276.752C731.893 272.846 730.103 269.468 727.58 266.62C725.871 264.504 726.644 262.022 729.899 259.174C733.48 256.163 738.566 254.657 745.158 254.657C749.227 254.657 752.808 256.57 755.9 260.395C759.807 264.952 761.76 271.503 761.76 280.048C761.76 288.511 760.498 296.853 757.976 305.072C755.453 313.21 751.994 321.063 747.6 328.632C743.205 336.119 737.997 343.118 731.975 349.628C726.034 356.138 719.605 361.794 712.688 366.596C697.876 377.012 683.065 382.221 668.254 382.221C657.593 382.221 650.35 377.867 646.525 369.159ZM839.641 226.093C837.85 227.965 835.816 229.511 833.537 230.731C831.258 231.871 828.858 232.603 826.335 232.929C823.812 233.173 821.411 232.766 819.133 231.708C816.936 230.65 815.023 229.145 813.396 227.191C809.896 223.122 808.146 219.013 808.146 214.862C808.146 210.712 808.798 207.619 810.1 205.585C811.483 203.469 813.192 201.76 815.227 200.458C819.133 197.935 822.795 196.674 826.213 196.674C829.712 196.674 832.398 196.918 834.27 197.406C836.223 197.895 838.013 198.708 839.641 199.848C843.628 202.533 845.622 205.829 845.622 209.735C845.622 213.56 845.052 216.775 843.913 219.379C842.855 221.902 841.431 224.14 839.641 226.093ZM814.616 358.173C816.732 358.173 817.79 359.556 817.79 362.323C817.79 365.985 816.122 369.77 812.785 373.676C807.902 379.372 801.351 382.221 793.132 382.221C783.692 382.221 777.222 378.396 773.723 370.746C772.421 368.061 771.77 364.805 771.77 360.98C771.77 357.156 772.421 352.924 773.723 348.285C775.106 343.565 776.774 338.642 778.728 333.515C780.762 328.306 782.959 323.057 785.319 317.768L791.789 302.387C796.509 290.912 798.869 283.344 798.869 279.682C798.869 276.02 798.462 273.619 797.648 272.479C796.916 271.259 796.102 270.323 795.207 269.672L792.766 267.963C791.952 267.393 791.545 266.417 791.545 265.033C791.545 263.568 792.074 262.185 793.132 260.883C794.271 259.581 795.736 258.441 797.526 257.465C801.188 255.593 805.461 254.657 810.344 254.657C822.307 254.657 828.288 257.79 828.288 264.057C828.288 271.381 826.376 279.763 822.551 289.203C818.726 298.562 815.471 306.13 812.785 311.908L805.461 328.754C800.09 341.124 797.404 350.035 797.404 355.487C797.404 359.068 799.195 360.858 802.775 360.858C806.275 360.858 808.92 360.411 810.71 359.516C812.5 358.62 813.802 358.173 814.616 358.173ZM933.269 277.729C930.746 277.729 927.165 280.17 922.526 285.053C917.888 289.854 913.859 294.249 910.441 298.236L900.065 310.688L880.046 336.2C875.326 345.152 871.623 352.598 868.938 358.539L862.346 372.699C860.637 376.199 859.131 378.681 857.829 380.146C856.608 381.529 854.899 382.221 852.702 382.221C850.586 382.221 848.511 381.814 846.477 381C844.523 380.268 842.814 379.291 841.35 378.07C838.257 375.466 836.711 372.618 836.711 369.525C836.711 368.305 837.606 365.904 839.396 362.323L844.035 352.436C845.5 349.506 847.209 345.762 849.162 341.205L855.998 324.481C865.601 300.474 870.402 284.971 870.402 277.973C870.402 274.229 869.182 271.462 866.74 269.672L864.299 267.963C863.485 267.393 863.078 266.417 863.078 265.033C863.078 263.568 863.607 262.185 864.665 260.883C865.804 259.581 867.269 258.441 869.06 257.465C872.722 255.593 876.384 254.657 880.046 254.657C883.789 254.657 886.678 255.064 888.713 255.878C890.747 256.692 892.456 257.79 893.84 259.174C896.851 262.022 898.356 264.993 898.356 268.085C898.356 271.177 897.95 274.311 897.136 277.484C896.403 280.577 895.427 283.751 894.206 287.006C893.067 290.18 891.846 293.313 890.544 296.405C889.242 299.498 888.062 302.183 887.004 304.462L884.562 309.711C883.911 311.013 883.749 311.42 884.074 310.932C893.107 298.399 899.048 290.342 901.896 286.762L910.441 276.508C916.708 269.184 921.631 264.341 925.212 261.981C932.455 257.099 938.151 254.657 942.302 254.657C946.452 254.657 949.951 255.186 952.8 256.244C955.648 257.302 958.13 258.808 960.246 260.761C964.722 264.911 966.96 270.201 966.96 276.63C966.96 283.059 965.495 289.773 962.565 296.771C959.636 303.77 957.072 309.467 954.875 313.861C952.759 318.174 950.725 322.569 948.771 327.045C942.668 340.635 939.616 350.523 939.616 356.708C939.616 359.475 941.813 360.858 946.208 360.858C949.626 360.858 952.718 360.126 955.485 358.661C958.334 357.196 960.165 356.464 960.979 356.464C962.688 356.464 963.542 357.318 963.542 359.027C963.542 366.27 959.839 372.333 952.434 377.216C947.469 380.552 942.912 382.221 938.762 382.221C934.611 382.221 931.153 381.773 928.386 380.878C925.7 379.983 923.299 378.559 921.184 376.605C916.382 372.292 913.981 366.27 913.981 358.539C913.981 349.099 916.952 337.299 922.893 323.139C927.206 313.454 930.257 306.822 932.048 303.241L936.198 294.574C938.721 289.366 939.982 285.256 939.982 282.245C939.982 279.234 937.744 277.729 933.269 277.729ZM986.857 338.275C987.183 331.195 988.363 324.441 990.397 318.012C992.432 311.501 995.158 305.235 998.576 299.213C1001.99 293.109 1005.98 287.372 1010.54 282.001C1015.18 276.549 1020.18 271.788 1025.55 267.719C1037.19 259.011 1048.95 254.657 1060.83 254.657C1074.75 254.657 1084.03 260.395 1088.66 271.869C1090.29 275.775 1091.06 280.414 1090.98 285.785C1090.9 291.075 1089.88 295.998 1087.93 300.556C1085.98 305.032 1083.25 309.141 1079.75 312.885C1076.33 316.547 1072.23 319.843 1067.42 322.772C1062.7 325.702 1057.54 328.184 1051.92 330.219C1040.36 334.288 1028 336.404 1014.81 336.566C1014.49 337.706 1014.28 339.415 1014.2 341.693C1014.12 343.972 1014.36 346.535 1014.93 349.384C1015.5 352.151 1016.48 354.633 1017.86 356.83C1020.79 361.713 1025.02 364.154 1030.56 364.154C1040 364.154 1049.19 361.387 1058.15 355.854C1061.32 353.982 1063.88 352.069 1065.84 350.116C1067.87 348.082 1069.62 347.064 1071.09 347.064C1072.55 347.064 1073.81 347.96 1074.87 349.75C1076.01 351.459 1076.58 353.412 1076.58 355.609C1076.58 359.923 1075.36 363.666 1072.92 366.84C1062.66 377.094 1047.4 382.221 1027.14 382.221C1015.18 382.221 1005.57 378.64 998.332 371.479C990.194 363.34 986.369 352.273 986.857 338.275ZM1058.15 270.893C1049.6 270.893 1041.38 276.752 1033.49 288.471C1026.82 298.562 1021.44 310.525 1017.38 324.359C1030.97 322.976 1042.77 317.605 1052.78 308.246C1061.97 299.457 1066.57 291.034 1066.57 282.978C1066.57 274.921 1063.76 270.893 1058.15 270.893Z" fill="black"/>
<path d="M1049.73 217.311L1049.76 216.503C1049.96 210.956 1051.36 205.714 1053.96 200.778C1056.35 196.27 1059.37 192.624 1063 189.84C1066.6 187.094 1070.11 185.721 1073.52 185.721C1076.12 185.721 1078.17 186.621 1079.67 188.421C1080.96 189.979 1081.6 191.891 1081.6 194.154C1081.6 196.863 1080.6 199.535 1078.62 202.17C1077.47 203.691 1076.24 204.786 1074.94 205.454C1074.33 205.788 1073.76 205.955 1073.22 205.955C1072.7 205.955 1072.22 205.844 1071.77 205.621C1071.33 205.398 1070.94 205.12 1070.6 204.786C1069.92 204.062 1069.57 203.413 1069.57 202.838C1069.57 202.263 1069.72 201.864 1070.02 201.641C1073.06 199.452 1075.13 197.197 1076.22 194.878C1076.65 193.987 1076.86 193.115 1076.86 192.262C1076.86 190.462 1076.01 189.562 1074.3 189.562C1071.63 189.562 1068.88 191.019 1066.04 193.932C1063.38 196.622 1061.16 199.999 1059.36 204.062C1057.48 208.237 1056.49 212.069 1056.38 215.557L1056.35 216.615C1056.35 220.79 1057.23 223.526 1059 224.825C1059.63 225.289 1060.38 225.521 1061.25 225.521C1062.14 225.521 1062.98 225.41 1063.75 225.187C1064.53 224.964 1065.31 224.658 1066.09 224.269C1067.35 223.619 1068.97 222.497 1070.94 220.901C1071.53 220.437 1072.02 220.502 1072.41 221.096C1072.74 221.578 1072.91 222.135 1072.91 222.766C1072.91 223.823 1072.76 224.547 1072.47 224.937C1072.19 225.308 1071.7 225.753 1070.99 226.272C1070.3 226.792 1069.46 227.274 1068.46 227.72C1066.12 228.759 1063.83 229.278 1061.58 229.278C1059.34 229.278 1057.53 229.009 1056.16 228.471C1054.78 227.915 1053.62 227.126 1052.68 226.105C1050.71 223.953 1049.73 221.021 1049.73 217.311ZM1107.26 195.323C1107.26 191.631 1104.82 189.785 1099.94 189.785C1096.88 189.785 1093.78 190.712 1090.64 192.568C1089.73 193.106 1089.02 193.607 1088.5 194.071C1088 194.516 1087.51 194.739 1087.05 194.739C1086.59 194.739 1086.14 194.627 1085.71 194.405C1085.29 194.164 1084.91 193.867 1084.57 193.514C1083.35 192.16 1083.48 190.852 1084.96 189.59C1087.19 187.679 1090.88 186.445 1096.04 185.888C1097.08 185.777 1098.4 185.721 1099.99 185.721C1101.59 185.721 1103.27 186.009 1105.03 186.584C1106.81 187.159 1108.3 187.938 1109.51 188.922C1111.92 190.907 1113.13 193.44 1113.13 196.52C1113.13 200.175 1111.46 203.506 1108.12 206.512C1105.22 209.146 1101.8 211.03 1097.85 212.162C1098.93 213.052 1099.94 214.333 1100.88 216.002L1103.11 219.982C1105.06 223.601 1106.8 225.567 1108.34 225.883C1108.88 225.976 1109.44 225.957 1110.01 225.827C1110.59 225.697 1110.96 225.642 1111.12 225.66C1111.31 225.66 1111.43 225.809 1111.49 226.105C1111.56 226.402 1111.49 226.773 1111.26 227.219C1111.04 227.664 1110.68 228.082 1110.18 228.471C1109.01 229.399 1107.73 229.807 1106.34 229.696C1104.95 229.603 1103.81 229.325 1102.94 228.861C1102.09 228.378 1101.32 227.775 1100.63 227.052C1099.96 226.328 1099.36 225.521 1098.82 224.63C1098.3 223.74 1097.82 222.831 1097.38 221.903L1096.12 219.175C1095.73 218.285 1095.37 217.524 1095.04 216.893C1094.7 216.244 1094.42 215.659 1094.18 215.14C1093.93 214.602 1093.67 214.119 1093.37 213.692C1092.74 212.728 1091.93 212.115 1090.95 211.855C1087.05 221.875 1083.09 227.59 1079.06 229C1078.73 229.13 1078.39 229.195 1078.03 229.195C1077.7 229.195 1077.39 229.13 1077.11 229C1076.84 228.889 1076.6 228.74 1076.42 228.555C1076.03 228.202 1075.83 227.812 1075.83 227.386C1075.83 226.959 1075.97 226.644 1076.25 226.439C1079.03 224.417 1082.12 218.517 1085.52 208.738L1087.19 204.035C1089.1 198.617 1090.71 195.277 1092.03 194.015C1092.5 193.663 1092.98 193.486 1093.48 193.486C1093.98 193.486 1094.42 193.57 1094.79 193.737C1095.16 193.885 1095.48 194.08 1095.76 194.321C1096.39 194.878 1096.71 195.444 1096.71 196.019C1096.71 196.594 1096.58 197.114 1096.32 197.578C1096.08 198.023 1095.8 198.654 1095.48 199.47C1094.57 201.845 1093.87 203.747 1093.37 205.176L1091.95 209.184C1095.9 208.664 1099.4 207.115 1102.44 204.536C1105.65 201.827 1107.26 198.756 1107.26 195.323ZM1163 223.378C1163.47 223.378 1163.7 223.712 1163.7 224.38C1163.7 225.029 1163.58 225.567 1163.34 225.994C1163.1 226.421 1162.82 226.811 1162.5 227.163C1162.19 227.516 1161.79 227.85 1161.31 228.165C1160.17 228.907 1158.98 229.278 1157.72 229.278C1156.47 229.278 1155.48 229.13 1154.74 228.833C1154.01 228.518 1153.38 228.054 1152.85 227.441C1151.69 226.161 1151.12 224.389 1151.12 222.125C1151.12 219.713 1151.58 216.772 1152.51 213.303C1153.44 209.814 1154.33 206.836 1155.18 204.369C1156.06 201.882 1156.95 199.517 1157.85 197.271L1160.36 190.898C1157.61 193.366 1154.13 198.552 1149.92 206.456L1143.19 219.203C1139.59 225.92 1137.02 229.278 1135.48 229.278C1133.98 229.278 1132.95 228.629 1132.39 227.33C1131.89 226.087 1131.64 223.981 1131.64 221.012C1131.64 218.025 1131.87 215.167 1132.33 212.44C1132.82 209.694 1133.42 207.013 1134.14 204.396C1135.4 199.776 1137.04 195.193 1139.04 190.647C1137.09 191.742 1134.93 194.182 1132.56 197.967C1130.74 200.992 1129.46 203.2 1128.71 204.591L1121.53 217.812C1118.55 223.248 1116.14 226.606 1114.33 227.887C1113.01 228.814 1111.59 229.278 1110.07 229.278C1108.77 229.278 1107.83 228.87 1107.26 228.054C1107.03 227.72 1106.92 227.414 1106.92 227.135C1106.92 226.857 1107.01 226.69 1107.17 226.634C1108.32 226.319 1109.14 225.994 1109.62 225.66C1110.09 225.308 1110.55 224.955 1111.01 224.603C1111.48 224.231 1112.15 223.461 1113.05 222.292C1113.94 221.105 1114.9 219.686 1115.94 218.034C1116.98 216.364 1118.06 214.5 1119.2 212.44L1122.73 205.927C1126 199.619 1129.41 194.562 1132.97 190.759C1134.23 189.404 1135.48 188.356 1136.7 187.614C1137.93 186.742 1139.35 186.157 1140.96 185.86C1141.41 185.768 1141.81 185.721 1142.19 185.721C1142.58 185.721 1143 185.777 1143.47 185.888C1143.95 186 1144.37 186.176 1144.72 186.417C1145.53 186.974 1145.78 187.716 1145.44 188.644C1145.29 189.2 1145.01 190.035 1144.58 191.148L1143.08 195.128C1139.57 204.814 1137.65 213.627 1137.31 221.569C1138.3 219.88 1139.29 218.034 1140.29 216.03L1143.44 209.824L1146.75 203.506C1151.85 194.043 1156.59 188.625 1160.97 187.252C1161.88 186.955 1162.64 186.807 1163.25 186.807C1163.87 186.807 1164.35 186.89 1164.7 187.057C1165.05 187.206 1165.37 187.4 1165.65 187.642C1166.3 188.235 1166.52 188.848 1166.32 189.479C1166.11 190.091 1165.84 190.879 1165.51 191.844L1161.47 203.617L1160.03 208.237C1158.43 213.581 1157.48 217.682 1157.19 220.539C1157.08 221.745 1157.21 222.691 1157.58 223.378C1157.97 224.046 1158.5 224.38 1159.16 224.38C1159.83 224.38 1160.35 224.333 1160.72 224.241C1161.11 224.129 1161.45 224.009 1161.72 223.879L1162.45 223.545C1162.65 223.434 1162.84 223.378 1163 223.378Z" fill="black"/>
<path d="M409.092 269C409.092 417.565 288.656 538 140.092 538C-8.47302 538 0.0915299 417.565 0.0915299 269C0.0915299 120.435 -8.47302 0 140.092 0C288.656 0 409.092 120.435 409.092 269Z" fill="#3E91F1"/>
<path d="M352 306.5C352 434.354 248.372 538 120.541 538C-7.29055 538 0.0787563 434.354 0.0787563 306.5C0.0787563 178.646 -7.29055 75 120.541 75C248.372 75 352 178.646 352 306.5Z" fill="#2F6DB6"/>
<path d="M294 344.5C294 451.367 207.447 538 100.679 538C-6.08927 538 0.0657794 451.367 0.0657794 344.5C0.0657794 237.633 -6.08927 151 100.679 151C207.447 151 294 237.633 294 344.5Z" fill="#214F85"/>
<path d="M237 382C237 468.156 167.228 538 81.1596 538C-4.9087 538 0.0530263 468.156 0.0530263 382C0.0530263 295.844 -4.9087 226 81.1596 226C167.228 226 237 295.844 237 382Z" fill="#153356"/>
</svg>
