<svg width="610" height="987" viewBox="0 0 610 987" fill="none" xmlns="http://www.w3.org/2000/svg">
<path d="M610 493.5C610 766.052 430.418 987 208.892 987C-12.6342 987 0.136481 766.052 0.136481 493.5C0.136481 220.947 -12.6342 0 208.892 0C430.418 0 610 220.947 610 493.5Z" fill="white"/>
<path d="M524.87 562.297C524.87 796.855 370.35 987.001 179.74 987.001C-10.871 987.001 0.117434 796.855 0.117434 562.297C0.117434 327.74 -10.871 137.594 179.74 137.594C370.35 137.594 524.87 327.74 524.87 562.297Z" fill="#214F85"/>
<path d="M438.386 632.009C438.386 828.065 309.326 986.999 150.123 986.999C-9.07976 986.999 0.0980843 828.065 0.0980843 632.009C0.0980843 435.954 -9.07976 277.02 150.123 277.02C309.326 277.02 438.386 435.954 438.386 632.009Z" fill="#ECF3FB"/>
<path d="M353.393 700.807C353.393 858.867 249.355 987 121.018 987C-7.3194 987 0.0790679 858.867 0.0790679 700.807C0.0790679 542.746 -7.3194 414.613 121.018 414.613C249.355 414.613 353.393 542.746 353.393 700.807Z" fill="#1660B7"/>
</svg>
